{"title":"Wiley ft. Ms D - Heatwave","uid":7514745,"size":316292625,"categoryP":"video","categoryS":"music_videos","magnet":"?xt=urn:btih:a1f04439cc2a29b630fe9dfdab51549c4c8f2fe1&amp;dn=Wiley+ft.+Ms+D+-+Heatwave&amp;tr=udp%3A%2F%2Ftracker.openbittorrent.com%3A80&amp;tr=udp%3A%2F%2Fopen.demonii.com%3A1337&amp;tr=udp%3A%2F%2Ftracker.coppersurfer.tk%3A6969&amp;tr=udp%3A%2F%2Fexodus.desync.com%3A6969","seeders":1,"leechers":0,"uploader":"mutz-nutz","files":-1,"time":1344440104,"description":"Wiley ft. Ms D - Heatwave - HD music video\n\n\nFormat                                   : MPEG-4\nFormat profile                           : Base Media / Version 2\nCodec ID                                 : mp42\nFile size                                : 302 MiB\nDuration                                 : 3mn 20s\nOverall bit rate mode                    : Variable\nOverall bit rate                         : 12.6 Mbps\n\nVideo\nID                                       : 1\nFormat                                   : AVC\nFormat/Info                              : Advanced Video Codec\nFormat profile                           : &lt;a class=&quot;__cf_email__&quot; href=&quot;/cdn-cgi/l/email-protection&quot; data-cfemail=&quot;7d301c14133d3149534d&quot;&gt;[email&amp;#160;protected]&lt;/a&gt;&lt;script cf-hash='f9e31' type=&quot;text/javascript&quot;&gt;\n/* &lt;![CDATA[ */!function(){try{var t=&quot;currentScript&quot;in document?document.currentScript:function(){for(var t=document.getElementsByTagName(&quot;script&quot;),e=t.length;e--;)if(t[e].getAttribute(&quot;cf-hash&quot;))return t[e]}();if(t&amp;&amp;t.previousSibling){var e,r,n,i,c=t.previousSibling,a=c.getAttribute(&quot;data-cfemail&quot;);if(a){for(e=&quot;&quot;,r=parseInt(a.substr(0,2),16),n=2;a.length-n;n+=2)i=parseInt(a.substr(n,2),16)^r,e+=String.fromCharCode(i);e=document.createTextNode(e),c.parentNode.replaceChild(e,c)}}}catch(u){}}();/* ]]&gt; */&lt;/script&gt;\nFormat settings, CABAC                   : Yes\nFormat settings, ReFrames                : 2 frames\nCodec ID                                 : avc1\nCodec ID/Info                            : Advanced Video Coding\nDuration                                 : 3mn 20s\nBit rate mode                            : Variable\nBit rate                                 : 12.4 Mbps\nMaximum bit rate                         : 32.2 Mbps\nWidth                                    : 1920 pixels\nHeight                                   : 1080 pixels\nDisplay aspect ratio                     : 16:9\nFrame rate mode                          : Constant\nFrame rate                               : 25.000 fps\nStandard                                 : PAL\nColor space                              : YUV\nChroma subsampling                       : 4:2:0\nBit depth                                : 8 bits\nScan type                                : Progressive\nBits/(Pixel*Frame)                       : 0.240\nStream size                              : 298 MiB (99%)\nLanguage                                 : English\n\nAudio\nID                                       : 2\nFormat                                   : AAC\nFormat/Info                              : Advanced Audio Codec\nFormat profile                           : LC\nCodec ID                                 : 40\nDuration                                 : 3mn 20s\nBit rate mode                            : Variable\nBit rate                                 : 158 Kbps\nMaximum bit rate                         : 176 Kbps\nChannel(s)                               : 2 channels\nChannel positions                        : Front: L R\nSampling rate                            : 44.1 KHz\nCompression mode                         : Lossy\nDelay relative to video                  : 23ms\nStream size                              : 3.78 MiB (1%)\nLanguage                                 : English\n","torrent":{"xt":"urn:btih:a1f04439cc2a29b630fe9dfdab51549c4c8f2fe1","amp;dn":"Wiley+ft.+Ms+D+-+Heatwave","amp;tr":["udp%3A%2F%2Ftracker.openbittorrent.com%3A80","udp%3A%2F%2Fopen.demonii.com%3A1337","udp%3A%2F%2Ftracker.coppersurfer.tk%3A6969","udp%3A%2F%2Fexodus.desync.com%3A6969"],"infoHash":"a1f04439cc2a29b630fe9dfdab51549c4c8f2fe1","infoHashBuffer":{"type":"Buffer","data":[161,240,68,57,204,42,41,182,48,254,157,253,171,81,84,156,76,143,47,225]},"announce":[],"urlList":[]}}